# xmcd
#
# Track frame offsets:
#	150
#	19057
#	37170
#	53847
#	75990
#	86632
#	112229
#	131614
#	149560
#	153957
#	171587
#	181178
#
# Disc length: 2730 seconds
#
# Revision: 1
# Processed by: cddbd v1.5.2PL0 Copyright (c) Steve Scherf et al.
# Submitted via: audiograbber 1.83.01
#
DISCID=a30aa80c
DTITLE=Phazm - Antebellum Death'n Roll
DYEAR=2006
DGENRE=Metal
TTITLE0=How To Become A God
TTITLE1=Hunger
TTITLE2=Black'n Roll
TTITLE3=So White, So Blue, So Cold
TTITLE4=My Darkest Desire
TTITLE5=Damballah
TTITLE6=Decay
TTITLE7=The Bright Side Of Death
TTITLE8=Sabbath
TTITLE9=Mr. Toodling
TTITLE10=Lorelindorenan
TTITLE11=Burarum
EXTD=France.
EXTT0=
EXTT1=
EXTT2=
EXTT3=
EXTT4=
EXTT5=
EXTT6=
EXTT7=
EXTT8=
EXTT9=
EXTT10=
EXTT11=
PLAYORDER=
